<?xml version="1.0" encoding="UTF-8" standalone="no"?>
<!DOCTYPE svg PUBLIC "-//W3C//DTD SVG 20010904//EN" "http://www.w3.org/TR/2001/REC-SVG-20010904/DTD/svg10.dtd">
<svg version="1.0" xmlns="http://www.w3.org/2000/svg" width="1200.000000pt" height="1200.000000pt" viewBox="0 0 1200.000000 1200.000000" preserveAspectRatio="xMidYMid meet">

<g transform="translate(0.000000,1200.000000) scale(0.100000,-0.100000)" fill="#000000" stroke="none">
<path d="M5680 9766 c-796 -102 -1475 -519 -1912 -1176 -234 -352 -389 -789 -429 -1210 -14 -151 -6 -470 16 -618 83 -566 329 -1068 720 -1471 230 -237 448 -397 727 -535 411 -203 790 -286 1258 -273 409 11 749 97 1115 281 520 263 916 661 1180 1184 251 499 334 1066 239 1632 -124 738 -575 1407 -1216 1803 -308 191 -611 303 -992 368 -156 27 -547 35 -706 15z m640 -121 c332 -51 603 -140 874 -288 613 -333 1071 -920 1242 -1591 42 -163 63 -300 76 -489 34 -503 -88 -1006 -351 -1444 -387 -646 -1031 -1086 -1766 -1207 -685 -114 -1379 57 -1943 478 -132 99 -393 358 -489 487 -251 336 -415 713 -482 1110 -31 183 -45 453 -32 616 29 337 106 621 250 919 128 264 277 472 490 685 331 330 714 550 1156 664 121 31 344 69 460 79 100 8 412 -4 515 -19z"/>
<path d="M4423 8798 c-39 -63 17 -644 111 -1143 l34 -180 -51 -55 c-107 -117 -121 -203 -61 -379 35 -104 140 -359 153 -373 4 -5 1 29 -5 75 -7 45 -13 135 -13 199 -1 186 26 219 78 94 17 -41 48 -131 68 -201 l38 -127 8 169 c11 260 25 306 66 226 31 -62 71 -249 82 -383 5 -72 59 343 59 458 0 75 -4 96 -26 140 -29 58 -91 117 -171 163 -39 22 -53 36 -53 52 0 57 -109 652 -166 911 -62 278 -117 408 -151 354z"/>
<path d="M5995 7814 c-54 -14 -78 -29 -91 -60 -18 -43 -19 -200 -1 -211 23 -14 219 -16 262 -1 48 16 85 66 85 116 0 48 -33 114 -67 134 -29 17 -151 31 -188 22z"/>
<path d="M6813 7648 c-6 -7 -16 -35 -23 -62 -10 -36 -29 -66 -72 -111 -59 -64 -67 -82 -46 -103 24 -24 55 -12 107 43 80 85 124 198 89 233 -16 16 -43 15 -55 0z"/>
<path d="M6307 7485 c-50 -17 -85 -50 -108 -100 -21 -45 -24 -87 -9 -116 27 -49 164 -82 248 -60 24 7 60 27 80 46 34 31 37 38 36 88 0 94 -66 157 -161 157 -26 -1 -65 -7 -86 -15z m140 -87 c35 -39 37 -63 7 -87 -34 -27 -82 -35 -130 -22 -64 18 -68 23 -48 64 30 62 131 88 171 45z"/>
<path d="M5776 7438 c-22 -11 -61 -42 -87 -69 -88 -90 -75 -153 50 -239 47 -32 105 -31 164 3 73 43 97 79 97 143 0 61 -9 85 -49 127 -55 60 -108 71 -175 35z m113 -89 c24 -24 31 -39 31 -70 0 -34 -4 -42 -40 -64 -54 -34 -80 -32 -130 13 l-43 38 36 41 c32 35 87 72 109 73 3 0 20 -14 37 -31z"/>
<path d="M7204 7408 c-62 -43 -123 -156 -123 -232 -1 -47 2 -52 50 -99 49 -47 53 -49 98 -45 68 7 205 96 221 143 23 71 -6 180 -61 229 -33 31 -46 36 -88 36 -38 0 -59 -7 -97 -32z"/>
<path d="M5179 7215 c-53 -29 -72 -126 -44 -222 17 -58 35 -77 64 -68 29 9 33 31 15 92 -34 117 14 169 66 70 36 -67 54 -69 106 -12 53 58 83 59 101 3 14 -42 4 -92 -27 -131 -33 -42 -26 -65 28 -88 50 -22 102 -65 102 -85 0 -23 -44 -44 -90 -44 -25 0 -51 -5 -58 -12 -15 -15 -16 -55 0 -64 21 -13 124 -6 156 10 108 56 93 174 -32 251 -15 9 -15 14 0 55 29 81 -1 188 -61 220 -37 20 -88 16 -130 -10 l-36 -22 -24 26 c-42 45 -90 56 -136 31z"/>
<path d="M6687 7135 c-50 -17 -71 -37 -96 -91 -21 -44 -22 -44 -61 -38 -58 9 -106 -3 -140 -37 -25 -25 -30 -39 -30 -77 0 -62 26 -108 86 -154 53 -41 75 -46 94 -23 18 21 5 59 -26 75 -72 39 -96 115 -42 134 22 8 40 5 84 -14 l57 -23 17 21 c10 11 20 38 24 60 11 75 63 111 116 82 32 -17 45 -52 45 -120 l0 -65 40 2 c22 1 69 5 105 8 36 3 71 2 78 -3 23 -15 -11 -66 -68 -103 -53 -34 -69 -61 -50 -84 19 -23 53 -18 96 13 91 66 130 140 105 200 -19 46 -61 64 -146 63 -70 0 -75 1 -75 21 0 39 -41 109 -79 133 -48 30 -88 36 -134 20z"/>
<path d="M5934 7060 c-11 -4 -37 -30 -57 -57 -20 -26 -50 -66 -67 -87 -16 -21 -30 -47 -30 -56 0 -35 40 -69 105 -89 196 -61 292 -24 343 132 24 75 19 91 -46 118 -94 41 -202 58 -248 39z m164 -98 c59 -18 62 -27 30 -83 -32 -57 -90 -67 -200 -35 l-57 16 51 65 c58 73 58 73 176 37z"/>
<path d="M7585 6966 c-122 -57 -284 -223 -259 -264 18 -28 85 -27 141 2 68 34 148 99 177 144 34 51 43 104 21 125 -21 21 -20 21 -80 -7z"/>
<path d="M5242 6904 c-44 -31 -17 -81 39 -70 24 5 35 1 53 -19 25 -27 55 -32 74 -13 21 21 13 45 -28 82 -45 40 -98 48 -138 20z"/>
<path d="M6665 6794 c-60 -30 -85 -93 -46 -114 27 -14 29 -13 57 17 21 22 35 28 72 29 68 1 69 2 75 25 14 52 -88 80 -158 43z"/>
<path d="M4320 6481 c0 -71 4 -86 37 -150 118 -230 632 -713 899 -846 l70 -35 667 0 c762 0 696 -7 853 95 288 188 673 564 792 775 32 57 36 73 40 152 l4 88 -1681 0 -1681 0 0 -79z"/>
<path d="M3458 3883 c-38 -2 -68 -8 -68 -13 0 -6 8 -10 18 -10 11 0 26 -8 36 -18 15 -17 16 -52 14 -348 l-3 -329 -32 -10 c-60 -17 -34 -25 82 -25 70 0 115 4 115 10 0 6 -9 10 -20 10 -11 0 -27 11 -36 25 -24 36 -17 304 10 357 34 70 118 99 167 59 23 -19 24 -24 27 -202 2 -100 1 -192 -2 -205 -4 -13 -18 -26 -36 -32 -16 -6 -30 -13 -30 -16 0 -4 52 -6 115 -6 70 0 115 4 115 10 0 6 -8 10 -17 10 -46 1 -48 10 -53 213 -4 162 -8 197 -23 220 -27 42 -72 60 -134 55 -60 -5 -96 -26 -130 -78 l-23 -33 0 182 c0 139 -3 181 -12 179 -7 -1 -43 -3 -80 -5z"/>
<path d="M8115 3880 l-70 -6 33 -13 c44 -18 52 -43 52 -166 l0 -104 -36 24 c-69 47 -177 25 -241 -48 -95 -108 -78 -353 28 -424 73 -48 174 -40 224 18 l25 31 0 -39 0 -38 80 3 c44 2 80 8 80 13 0 5 -7 9 -15 9 -8 0 -24 9 -35 20 -19 19 -20 33 -20 375 0 332 -1 355 -17 353 -10 -1 -49 -4 -88 -8z m-36 -274 c44 -23 51 -53 51 -217 0 -163 -6 -189 -56 -228 -62 -49 -149 -6 -175 86 -17 60 -16 205 1 258 33 101 102 140 179 101z"/>
<path d="M8398 3883 c-71 -4 -89 -16 -39 -26 47 -10 51 -39 51 -361 0 -317 -4 -338 -53 -344 -15 -2 -27 -8 -27 -13 0 -5 50 -9 115 -9 70 0 115 4 115 10 0 6 -8 10 -19 10 -40 0 -46 25 -46 189 1 124 4 162 17 186 27 50 63 77 111 82 39 5 46 2 65 -22 21 -26 22 -38 22 -212 0 -191 -6 -223 -40 -223 -11 0 -20 -4 -20 -10 0 -6 43 -10 110 -10 67 0 110 4 110 10 0 6 -8 10 -18 10 -11 0 -26 8 -35 18 -14 16 -17 45 -17 191 0 182 -7 218 -49 255 -13 12 -41 21 -75 24 -64 5 -107 -13 -153 -66 l-33 -37 0 178 c0 136 -3 177 -12 175 -7 -1 -43 -3 -80 -5z"/>
<path d="M2701 3844 c-12 -15 -21 -32 -21 -39 0 -26 36 -57 65 -57 29 0 65 31 65 57 0 24 -41 65 -65 65 -14 0 -32 -11 -44 -26z"/>
<path d="M7142 3854 c-26 -18 -30 -65 -6 -88 8 -9 28 -16 44 -16 36 0 60 24 60 60 0 30 -30 60 -60 60 -9 0 -26 -7 -38 -16z"/>
<path d="M5847 3808 c-3 -7 -55 -143 -116 -301 -130 -336 -124 -324 -165 -359 l-31 -27 98 -1 c58 0 97 4 97 10 0 6 -11 10 -25 10 -14 0 -34 9 -46 21 -24 24 -21 44 19 152 l25 68 120 -3 120 -3 34 -90 c39 -103 40 -138 3 -143 -14 -2 -29 -8 -34 -13 -6 -5 36 -9 107 -9 116 0 139 7 93 28 -25 11 -36 38 -211 495 -38 97 -71 177 -76 177 -4 0 -9 -6 -12 -12z m33 -262 c28 -77 49 -141 47 -143 -3 -2 -52 -2 -110 -1 l-105 3 28 70 c15 39 39 103 55 143 15 40 29 72 31 70 2 -2 26 -66 54 -142z"/>
<path d="M1790 3800 c0 -5 13 -10 30 -10 19 0 33 -7 40 -19 6 -12 10 -127 10 -303 0 -309 -3 -328 -56 -328 -13 0 -24 -4 -24 -10 0 -6 38 -10 95 -10 57 0 95 4 95 10 0 6 -10 10 -23 10 -13 0 -32 6 -43 14 -18 14 -19 31 -22 302 -2 159 0 286 3 283 3 -3 59 -143 124 -309 65 -167 122 -305 128 -307 6 -2 62 133 124 301 l114 305 3 -282 c2 -256 1 -283 -15 -294 -9 -7 -27 -13 -40 -13 -13 0 -23 -4 -23 -10 0 -6 48 -10 125 -10 71 0 125 4 125 9 0 5 -12 11 -27 13 -49 5 -53 28 -53 323 0 295 4 318 53 323 15 2 27 8 27 13 0 5 -38 9 -84 9 l-83 0 -104 -279 c-57 -154 -107 -277 -110 -273 -4 4 -53 130 -109 280 l-103 272 -88 0 c-53 0 -89 -4 -89 -10z"/>
<path d="M3073 3616 c-91 -43 -139 -143 -131 -272 4 -56 12 -84 35 -125 71 -127 245 -146 324 -36 28 39 37 67 21 67 -4 0 -16 -14 -26 -31 -24 -40 -96 -73 -141 -65 -82 16 -120 89 -120 231 0 153 49 235 140 235 26 0 51 -7 65 -18 l22 -17 -21 -19 c-25 -23 -27 -49 -5 -70 42 -43 104 3 83 62 -25 73 -152 103 -246 58z"/>
<path d="M4106 3625 c-64 -23 -91 -47 -94 -87 -5 -61 47 -89 88 -48 26 26 25 46 -5 75 l-24 25 29 15 c40 21 103 19 131 -4 19 -15 24 -30 27 -85 5 -84 -3 -95 -111 -136 -139 -53 -180 -103 -157 -190 26 -95 165 -109 244 -24 21 23 26 25 26 11 0 -10 11 -29 25 -42 28 -29 72 -32 115 -10 32 17 43 42 13 30 -10 -4 -27 -8 -38 -9 -19 -1 -20 7 -25 201 -5 184 -7 204 -26 230 -43 59 -133 79 -218 48z m144 -415 c-15 -29 -69 -60 -103 -60 -41 0 -77 40 -77 86 0 58 26 90 110 133 l75 40 3 -90 c2 -51 -2 -98 -8 -109z"/>
<path d="M4725 3626 c-17 -7 -45 -30 -63 -50 l-32 -37 0 45 0 44 -82 -5 c-46 -3 -85 -7 -87 -9 -2 -2 10 -9 28 -15 19 -7 36 -22 42 -36 5 -13 9 -104 9 -201 0 -194 -7 -222 -56 -222 -13 0 -24 -4 -24 -10 0 -6 45 -10 115 -10 70 0 115 4 115 10 0 6 -8 10 -18 10 -38 0 -42 19 -42 187 0 145 2 168 20 204 36 71 118 101 160 59 19 -19 20 -33 20 -223 0 -210 -3 -227 -42 -227 -10 0 -18 -4 -18 -10 0 -6 45 -10 115 -10 70 0 115 4 115 10 0 6 -11 10 -24 10 -46 0 -56 31 -56 180 0 74 5 152 11 173 24 89 116 142 169 99 25 -20 25 -22 28 -208 2 -103 1 -198 -2 -210 -4 -13 -18 -26 -36 -32 -16 -6 -30 -13 -30 -16 0 -4 52 -6 115 -6 70 0 115 4 115 10 0 6 -8 10 -17 10 -46 1 -48 9 -53 218 -6 223 -11 241 -78 269 -72 30 -151 4 -198 -65 l-21 -30 -17 38 c-27 62 -109 88 -181 56z"/>
<path d="M6455 3626 c-31 -14 -64 -46 -83 -81 -10 -17 -11 -11 -12 34 l0 54 -31 -7 c-17 -3 -53 -6 -80 -6 -27 0 -49 -4 -49 -10 0 -5 9 -10 19 -10 44 0 51 -32 51 -236 0 -172 -2 -193 -18 -207 -10 -10 -26 -17 -35 -17 -9 0 -17 -4 -17 -10 0 -6 43 -10 110 -10 67 0 110 4 110 10 0 6 -6 10 -14 10 -8 0 -22 7 -30 16 -13 13 -16 43 -16 172 0 139 2 161 21 200 36 74 111 103 160 63 23 -19 24 -23 27 -208 3 -202 -3 -235 -46 -241 -12 -2 -22 -8 -22 -13 0 -5 51 -9 115 -9 110 0 149 11 85 24 -42 8 -50 36 -50 180 0 191 36 271 127 283 35 5 43 2 61 -22 21 -26 22 -38 22 -221 0 -162 -3 -195 -16 -208 -8 -9 -22 -16 -30 -16 -8 0 -14 -4 -14 -10 0 -6 43 -10 110 -10 67 0 110 4 110 10 0 6 -8 10 -18 10 -11 0 -26 8 -35 18 -14 16 -17 45 -18 193 0 198 -8 232 -59 267 -65 44 -173 15 -217 -58 l-17 -29 -18 40 c-27 62 -111 87 -183 55z"/>
<path d="M7603 3621 c-17 -11 -43 -37 -57 -58 l-26 -38 0 54 0 54 -31 -7 c-17 -3 -53 -6 -80 -6 -27 0 -49 -4 -49 -10 0 -5 9 -10 19 -10 44 0 51 -32 51 -236 0 -172 -2 -193 -18 -207 -10 -10 -26 -17 -35 -17 -9 0 -17 -4 -17 -10 0 -6 50 -10 130 -10 80 0 130 4 130 10 0 6 -11 10 -24 10 -13 0 -35 9 -50 21 -26 20 -26 21 -26 165 0 161 9 196 62 252 21 21 41 32 60 32 32 0 34 -6 13 -34 -19 -25 -19 -41 1 -60 33 -34 94 -7 94 41 0 35 -11 53 -41 68 -38 20 -68 19 -106 -4z"/>
<path d="M9048 3624 c-48 -15 -98 -62 -98 -93 0 -28 30 -61 55 -61 51 0 73 62 36 99 -17 17 -18 21 -5 32 8 7 36 14 62 16 38 4 53 1 75 -17 25 -20 27 -27 27 -95 0 -87 1 -85 -120 -130 -49 -19 -88 -41 -112 -65 -33 -33 -38 -44 -38 -83 0 -34 6 -53 25 -75 48 -57 154 -55 213 4 40 40 42 40 42 14 0 -50 73 -76 129 -47 35 17 41 41 7 26 -20 -9 -29 -9 -41 1 -12 10 -15 44 -15 197 0 218 -7 243 -72 273 -50 23 -105 24 -170 4z m118 -441 c-37 -34 -79 -43 -116 -23 -27 14 -41 71 -29 115 11 39 37 61 119 102 l55 28 3 -95 3 -95 -35 -32z"/>
<path d="M9663 3621 c-23 -11 -52 -36 -67 -57 l-26 -39 0 54 0 54 -31 -7 c-17 -3 -53 -6 -80 -6 -27 0 -49 -4 -49 -10 0 -5 8 -10 18 -10 11 0 26 -8 35 -18 15 -16 17 -46 17 -215 0 -208 -4 -227 -51 -227 -10 0 -19 -4 -19 -10 0 -6 45 -10 115 -10 63 0 115 2 115 6 0 3 -14 10 -30 16 -18 6 -32 19 -36 33 -3 13 -4 90 -2 172 3 135 5 152 27 190 38 67 107 91 152 54 23 -19 24 -23 27 -211 3 -162 1 -195 -13 -216 -8 -13 -24 -24 -35 -24 -11 0 -20 -4 -20 -10 0 -6 45 -10 115 -10 116 0 142 8 83 25 l-33 10 -3 167 c-2 153 -1 171 18 208 36 71 118 102 160 60 19 -19 20 -33 20 -223 0 -210 -3 -227 -42 -227 -10 0 -18 -4 -18 -10 0 -6 45 -10 115 -10 70 0 115 4 115 10 0 6 -11 10 -24 10 -49 0 -56 28 -56 223 0 203 -8 234 -65 261 -70 34 -168 5 -207 -60 l-22 -37 -11 33 c-24 70 -113 98 -192 61z"/>
<path d="M2695 3620 l-70 -6 33 -13 c19 -8 38 -24 43 -38 5 -13 9 -104 9 -201 0 -194 -7 -222 -56 -222 -13 0 -24 -4 -24 -10 0 -6 47 -10 120 -10 121 0 148 8 88 25 l-33 10 -3 238 c-2 218 -4 237 -20 235 -9 -1 -48 -4 -87 -8z"/>
<path d="M7138 3623 c-38 -2 -68 -8 -68 -13 0 -6 8 -10 18 -10 11 0 26 -8 35 -18 15 -16 17 -46 17 -215 0 -208 -4 -227 -51 -227 -10 0 -19 -4 -19 -10 0 -6 47 -10 121 -10 77 0 118 4 114 10 -3 6 -15 10 -25 10 -10 0 -26 10 -34 22 -13 19 -16 60 -16 245 0 173 -3 223 -12 221 -7 -1 -43 -3 -80 -5z"/>
<path d="M2923 2587 c-37 -12 -44 -27 -13 -27 17 0 20 -7 20 -45 l0 -45 -43 6 c-86 12 -141 -42 -142 -138 0 -70 25 -109 80 -123 30 -7 43 -6 68 9 20 11 33 14 35 7 5 -14 72 -15 72 -1 0 6 -7 10 -15 10 -13 0 -15 27 -15 180 0 99 -3 179 -7 179 -5 -1 -23 -7 -40 -12z m-12 -137 c16 -9 19 -22 19 -94 0 -92 -15 -118 -65 -118 -33 0 -51 16 -66 59 -33 100 36 193 112 153z"/>
<path d="M4368 2593 c-32 -5 -38 -23 -8 -23 19 0 20 -7 20 -154 0 -124 -3 -158 -15 -170 -23 -23 -19 -26 35 -26 28 0 50 5 50 10 0 6 -7 10 -15 10 -12 0 -15 17 -15 95 0 83 2 96 19 105 32 17 69 12 85 -12 22 -31 23 -176 1 -184 -31 -12 -13 -24 35 -24 28 0 50 5 50 10 0 6 -6 10 -14 10 -11 0 -15 22 -18 101 -3 92 -5 103 -27 120 -28 23 -62 24 -101 4 l-30 -16 0 76 c0 54 -3 75 -12 74 -7 -1 -25 -4 -40 -6z"/>
<path d="M5405 2590 c-3 -5 -15 -10 -26 -10 -10 0 -19 -4 -19 -10 0 -5 7 -10 15 -10 11 0 15 -12 15 -45 l0 -45 -39 6 c-77 12 -143 -47 -145 -130 -2 -105 72 -163 154 -121 17 9 30 11 30 5 0 -5 16 -10 35 -10 19 0 35 5 35 10 0 6 -7 10 -15 10 -13 0 -15 27 -15 180 0 165 -5 202 -25 170z m-27 -142 c7 -7 12 -43 12 -93 0 -69 -3 -85 -20 -100 -24 -21 -66 -23 -87 -3 -41 41 -35 162 10 193 26 18 68 20 85 3z"/>
<path d="M5820 2582 c-13 -11 -23 -33 -27 -61 -4 -31 -11 -45 -24 -48 -25 -7 -24 -23 1 -23 19 0 20 -7 20 -94 0 -71 -4 -98 -15 -110 -23 -23 -19 -26 35 -26 28 0 50 5 50 10 0 6 -7 10 -15 10 -12 0 -15 18 -15 105 l0 105 30 0 c17 0 30 5 30 10 0 6 -13 10 -30 10 -29 0 -30 2 -30 43 0 24 5 48 12 55 19 19 45 14 51 -9 3 -12 11 -19 18 -17 37 12 5 58 -41 58 -15 0 -38 -8 -50 -18z"/>
<path d="M6620 2582 c-13 -11 -23 -33 -27 -61 -4 -31 -11 -45 -24 -48 -25 -7 -24 -23 1 -23 19 0 20 -7 20 -94 0 -71 -4 -98 -15 -110 -23 -23 -19 -26 35 -26 28 0 50 5 50 10 0 6 -7 10 -15 10 -12 0 -15 18 -15 105 l0 105 30 0 c17 0 30 5 30 10 0 6 -13 10 -30 10 -29 0 -30 2 -30 43 0 24 5 48 12 55 19 19 45 14 51 -9 3 -12 11 -19 18 -17 37 12 5 58 -41 58 -15 0 -38 -8 -50 -18z"/>
<path d="M7495 2590 c-3 -5 -15 -10 -26 -10 -10 0 -19 -4 -19 -10 0 -5 7 -10 15 -10 11 0 15 -11 15 -43 l0 -43 -55 0 c-49 1 -58 -3 -87 -31 -28 -29 -33 -40 -36 -98 -4 -63 -3 -66 31 -100 39 -39 73 -45 120 -21 15 8 27 11 27 5 0 -5 18 -9 40 -9 22 0 40 5 40 10 0 6 -9 10 -20 10 -19 0 -20 7 -20 180 0 165 -5 202 -25 170z m-31 -136 c13 -5 16 -24 16 -101 l0 -94 -32 -13 c-60 -26 -98 14 -98 100 0 88 48 133 114 108z"/>
<path d="M8473 2587 c-37 -12 -44 -27 -13 -27 17 0 20 -7 20 -45 l0 -45 -43 6 c-86 12 -141 -42 -142 -138 0 -70 25 -109 80 -123 30 -7 43 -6 68 9 20 11 33 14 35 7 5 -14 72 -15 72 -1 0 6 -7 10 -15 10 -13 0 -15 27 -15 180 0 99 -3 179 -7 179 -5 -1 -23 -7 -40 -12z m-12 -137 c16 -9 19 -22 19 -94 0 -92 -15 -118 -65 -118 -33 0 -51 16 -66 59 -33 100 36 193 112 153z"/>
<path d="M10055 2590 c-3 -5 -15 -10 -26 -10 -10 0 -19 -4 -19 -10 0 -5 7 -10 15 -10 11 0 15 -12 15 -45 l0 -45 -39 6 c-77 12 -143 -47 -145 -130 -2 -105 72 -163 154 -121 17 9 30 11 30 5 0 -5 16 -10 35 -10 19 0 35 5 35 10 0 6 -7 10 -15 10 -13 0 -15 27 -15 180 0 165 -5 202 -25 170z m-27 -142 c7 -7 12 -43 12 -93 0 -69 -3 -85 -20 -100 -24 -21 -66 -23 -87 -3 -41 41 -35 162 10 193 26 18 68 20 85 3z"/>
<path d="M7757 2583 c-11 -10 -8 -41 4 -49 6 -3 18 1 27 9 13 13 13 19 2 31 -14 17 -23 20 -33 9z"/>
<path d="M1890 2560 c0 -5 9 -10 20 -10 19 0 20 -7 20 -139 0 -147 -4 -171 -26 -171 -8 0 -14 -4 -14 -10 0 -6 48 -10 125 -10 l125 0 0 50 c0 28 -4 50 -10 50 -5 0 -10 -11 -10 -23 0 -39 -30 -57 -93 -57 l-57 0 0 150 c0 125 3 152 15 156 32 13 13 24 -40 24 -30 0 -55 -4 -55 -10z"/>
<path d="M2244 2464 c-84 -41 -94 -178 -15 -231 52 -35 122 -26 160 21 17 20 2 20 -23 1 -26 -20 -90 -19 -110 0 -13 14 -36 75 -36 98 0 4 41 7 90 7 55 0 90 4 90 10 0 24 -30 79 -51 94 -29 20 -65 20 -105 0z m90 -26 c32 -45 22 -58 -44 -58 -51 0 -60 3 -60 18 0 27 37 62 65 62 13 0 31 -10 39 -22z"/>
<path d="M2473 2465 c-34 -9 -45 -25 -18 -25 23 0 22 -176 -2 -202 -15 -17 -14 -18 35 -18 29 0 52 5 52 10 0 6 -7 10 -15 10 -12 0 -15 16 -15 88 0 100 12 122 68 122 43 0 52 -22 52 -121 0 -66 -3 -84 -17 -95 -16 -12 -10 -13 40 -14 36 0 56 4 52 10 -3 6 -12 10 -18 10 -8 0 -12 29 -12 96 -1 93 -2 97 -28 120 -32 28 -60 30 -101 9 -34 -18 -34 -18 -38 -2 -2 9 -11 10 -35 2z"/>
<path d="M3504 2470 c-31 -12 -71 -64 -78 -103 -14 -77 46 -157 118 -157 96 0 159 122 106 207 -32 53 -93 75 -146 53z m85 -29 c38 -38 41 -153 5 -192 -37 -40 -97 -13 -114 52 -29 108 46 203 109 140z"/>
<path d="M4055 2470 c-3 -5 -15 -10 -26 -10 -10 0 -19 -4 -19 -10 0 -5 7 -10 15 -10 12 0 15 -17 15 -95 0 -76 -3 -97 -15 -101 -31 -12 -13 -24 35 -24 28 0 50 5 50 10 0 6 -7 10 -15 10 -12 0 -15 16 -15 80 0 73 3 83 25 105 28 29 40 31 49 10 7 -20 32 -19 40 1 8 21 -11 44 -34 44 -10 0 -32 -12 -49 -26 -29 -24 -31 -25 -31 -5 0 23 -16 36 -25 21z"/>
<path d="M4700 2463 c-26 -13 -35 -25 -35 -43 0 -16 6 -25 15 -25 8 0 17 11 19 25 4 29 17 40 47 40 28 0 41 -16 49 -61 l7 -35 -55 -13 c-65 -14 -97 -41 -97 -81 0 -53 70 -78 120 -43 17 12 25 13 28 5 4 -14 72 -16 72 -2 0 6 -6 10 -14 10 -11 0 -15 22 -18 100 -3 111 -12 127 -69 136 -22 3 -46 -1 -69 -13z m100 -158 c0 -26 -6 -39 -24 -51 -30 -19 -65 -15 -80 9 -20 31 28 77 82 77 19 0 22 -5 22 -35z"/>
<path d="M4933 2465 c-35 -10 -44 -25 -15 -25 15 0 17 -10 14 -97 -3 -76 -7 -100 -20 -110 -15 -10 -9 -12 36 -13 28 0 52 5 52 10 0 6 -6 10 -12 10 -10 0 -12 24 -10 92 3 101 12 118 63 118 40 0 52 -23 57 -109 3 -62 1 -80 -12 -93 -24 -25 -20 -28 34 -28 28 0 50 5 50 10 0 6 -7 10 -15 10 -12 0 -15 16 -15 80 0 98 -17 146 -56 156 -25 6 -39 3 -96 -21 -10 -4 -18 -1 -20 7 -2 10 -11 11 -35 3z"/>
<path d="M5983 2460 c-72 -44 -85 -153 -24 -213 27 -28 39 -32 82 -32 45 0 54 4 83 36 44 47 53 96 28 152 -31 70 -106 96 -169 57z m105 -25 c25 -32 35 -96 22 -145 -17 -63 -69 -79 -111 -34 -21 22 -24 35 -24 96 0 61 3 72 24 89 32 26 66 24 89 -6z"/>
<path d="M6255 2470 c-3 -5 -15 -10 -26 -10 -10 0 -19 -4 -19 -10 0 -5 7 -10 15 -10 12 0 15 -17 15 -95 0 -76 -3 -97 -15 -101 -31 -12 -13 -24 35 -24 28 0 50 5 50 10 0 6 -7 10 -15 10 -12 0 -15 16 -15 80 0 73 3 83 25 105 28 29 40 31 49 10 7 -20 32 -19 40 1 8 21 -11 44 -34 44 -10 0 -32 -12 -49 -26 -29 -24 -31 -25 -31 -5 0 23 -16 36 -25 21z"/>
<path d="M6783 2460 c-72 -44 -85 -153 -24 -213 27 -28 39 -32 82 -32 45 0 54 4 83 36 44 47 53 96 28 152 -31 70 -106 96 -169 57z m105 -25 c25 -32 35 -96 22 -145 -17 -63 -69 -79 -111 -34 -21 22 -24 35 -24 96 0 61 3 72 24 89 32 26 66 24 89 -6z"/>
<path d="M7085 2471 c-43 -19 -68 -59 -73 -114 -5 -69 16 -113 66 -134 90 -38 172 24 172 132 0 37 -6 52 -33 81 -34 37 -92 53 -132 35z m70 -17 c46 -18 62 -149 24 -198 -20 -26 -42 -32 -74 -20 -46 18 -62 149 -24 198 20 26 42 32 74 20z"/>
<path d="M7893 2465 c-34 -9 -45 -25 -18 -25 23 0 22 -176 -2 -202 -15 -17 -14 -18 35 -18 29 0 52 5 52 10 0 6 -7 10 -15 10 -12 0 -15 16 -15 88 0 100 12 122 68 122 43 0 52 -22 52 -121 0 -66 -3 -84 -17 -95 -16 -12 -10 -13 40 -14 36 0 56 4 52 10 -3 6 -12 10 -18 10 -8 0 -12 29 -12 96 -1 93 -2 97 -28 120 -32 28 -60 30 -101 9 -34 -18 -34 -18 -38 -2 -2 9 -11 10 -35 2z"/>
<path d="M8665 2470 c-64 -26 -96 -130 -61 -198 18 -36 62 -62 101 -62 34 0 92 27 99 46 7 18 -4 17 -28 -1 -11 -8 -37 -15 -57 -15 -46 0 -79 36 -79 86 l0 34 85 0 c95 0 98 4 70 65 -23 48 -78 67 -130 45z m77 -27 c10 -9 18 -27 18 -40 0 -22 -4 -23 -60 -23 -67 0 -74 9 -39 54 23 30 54 33 81 9z"/>
<path d="M8906 2472 c-4 -7 -18 -12 -32 -12 -13 0 -24 -4 -24 -10 0 -5 9 -10 20 -10 19 0 20 -7 20 -89 0 -66 -4 -93 -15 -105 -23 -23 -19 -26 35 -26 28 0 50 5 50 10 0 6 -7 10 -15 10 -12 0 -15 17 -15 93 0 59 4 97 12 105 20 20 65 14 82 -10 22 -31 22 -160 1 -182 -23 -23 -19 -26 35 -26 28 0 50 5 50 10 0 6 -7 10 -15 10 -12 0 -15 17 -15 93 0 101 7 117 51 117 44 0 59 -32 59 -123 0 -60 -3 -79 -15 -83 -31 -12 -13 -24 35 -24 28 0 50 5 50 10 0 6 -7 10 -15 10 -12 0 -15 17 -15 95 0 88 -2 98 -25 120 -28 29 -63 32 -106 10 -27 -14 -32 -14 -51 0 -28 19 -68 19 -93 1 -17 -12 -21 -12 -31 2 -8 11 -13 12 -18 4z"/>
<path d="M9350 2463 c-26 -13 -35 -25 -35 -43 0 -16 6 -25 15 -25 8 0 17 11 19 25 4 29 17 40 47 40 28 0 41 -16 49 -61 l7 -35 -55 -13 c-65 -14 -97 -41 -97 -81 0 -53 70 -78 120 -43 17 12 25 13 28 5 4 -14 72 -16 72 -2 0 6 -6 10 -14 10 -11 0 -15 22 -18 100 -3 111 -12 127 -69 136 -22 3 -46 -1 -69 -13z m100 -158 c0 -26 -6 -39 -24 -51 -30 -19 -65 -15 -80 9 -20 31 28 77 82 77 19 0 22 -5 22 -35z"/>
<path d="M9583 2465 c-35 -10 -44 -25 -15 -25 15 0 17 -10 14 -97 -3 -76 -7 -100 -20 -110 -15 -10 -9 -12 36 -13 28 0 52 5 52 10 0 6 -6 10 -12 10 -10 0 -12 24 -10 92 3 101 12 118 63 118 40 0 52 -23 57 -109 3 -62 1 -80 -12 -93 -24 -25 -20 -28 34 -28 28 0 50 5 50 10 0 6 -7 10 -15 10 -12 0 -15 16 -15 80 0 98 -17 146 -56 156 -25 6 -39 3 -96 -21 -10 -4 -18 -1 -20 7 -2 10 -11 11 -35 3z"/>
<path d="M3150 2461 c0 -5 5 -11 10 -13 6 -2 26 -39 46 -83 70 -158 68 -152 54 -196 -15 -44 -40 -72 -47 -51 -3 6 -14 12 -25 12 -31 0 -20 -44 13 -48 39 -5 55 22 115 189 30 85 62 161 70 170 21 24 17 29 -21 29 -19 0 -35 -4 -35 -10 0 -5 6 -10 13 -10 10 0 5 -24 -17 -90 l-31 -89 -23 46 c-13 25 -30 64 -38 85 -12 34 -11 40 1 44 31 12 13 24 -35 24 -27 0 -50 -4 -50 -9z"/>
<path d="M3733 2463 c-26 -5 -31 -23 -8 -23 12 0 15 -17 15 -90 0 -83 2 -93 25 -115 30 -31 73 -32 109 -4 21 17 26 18 26 5 0 -12 10 -16 35 -16 19 0 35 5 35 10 0 6 -7 10 -15 10 -12 0 -15 20 -15 116 0 116 0 116 -22 110 -13 -3 -29 -6 -35 -6 -7 0 -13 -4 -13 -10 0 -5 7 -10 15 -10 12 0 15 -16 15 -83 0 -95 -13 -117 -69 -117 -42 0 -51 25 -51 141 0 65 -3 89 -12 88 -7 -1 -23 -4 -35 -6z"/>
<path d="M7743 2463 c-26 -5 -31 -23 -8 -23 23 0 22 -176 -2 -202 -15 -17 -14 -18 35 -18 29 0 52 5 52 10 0 6 -7 10 -15 10 -12 0 -15 19 -15 115 0 86 -3 115 -12 114 -7 -1 -23 -4 -35 -6z"/>
<path d="M5518 2258 c-7 -19 2 -38 18 -38 17 0 17 -7 3 -49 -15 -43 -4 -51 16 -11 23 44 17 104 -11 108 -12 2 -24 -3 -26 -10z"/>
<path d="M10164 2255 c-8 -21 2 -45 19 -45 21 0 38 25 31 44 -8 20 -43 21 -50 1z"/>
</g>
</svg>